<svg width="97" height="130" viewBox="0 0 97 130" fill="none" xmlns="http://www.w3.org/2000/svg">
<path d="M63.21 37.99C73.62 37.99 82.06 29.55 82.06 19.14C82.06 8.73001 73.62 0.290009 63.21 0.290009C52.8 0.290009 44.36 8.73001 44.36 19.14C44.36 29.55 52.81 37.99 63.21 37.99ZM56.78 80.13L59.82 68.42C82.53 75.21 96.58 62.33 96.58 62.33L90.02 53.2C61.22 67.01 59.35 45.94 59.35 45.94L48.58 43.36C34.3 56.02 33.36 90.2 33.36 90.2C27.12 105.96 0.580017 113.38 0.580017 113.38L7.37001 127.66C30.08 126.72 51.39 96.05 51.39 96.05C57.45 97.28 62.37 98.61 67.55 106.35C73.21 114.83 71.03 129.26 71.03 129.26L86.28 126.49C86.28 126.49 90.26 107.99 77.59 93.45C68.2 82.68 56.78 80.13 56.78 80.13Z" fill="url(#paint0_linear_12_12)"/>
<defs>
<linearGradient id="paint0_linear_12_12" x1="0.584217" y1="64.7765" x2="96.5781" y2="64.7765" gradientUnits="userSpaceOnUse">
<stop stop-color="#00B3FF"/>
<stop offset="0.3751" stop-color="#52F2EA"/>
<stop offset="1" stop-color="#52F2EA"/>
</linearGradient>
</defs>
</svg>
